<?xml version="1.0" standalone="no"?>
<!DOCTYPE svg PUBLIC "-//W3C//DTD SVG 20010904//EN"
 "http://www.w3.org/TR/2001/REC-SVG-20010904/DTD/svg10.dtd">
<svg version="1.0" xmlns="http://www.w3.org/2000/svg"
 width="300.000000pt" height="225.000000pt" viewBox="0 0 300.000000 225.000000"
 preserveAspectRatio="xMidYMid meet">
<metadata>
Created by potrace 1.10, written by Peter Selinger 2001-2011
</metadata>
<g transform="translate(0.000000,225.000000) scale(0.100000,-0.100000)"
fill="#000000" stroke="none">
<path d="M1305 1998 c-204 -16 -565 -72 -495 -77 13 -1 13 -2 0 -11 -20 -13
-33 -13 -25 0 17 27 -107 -11 -181 -55 -60 -36 -166 -127 -144 -125 8 2 24 2
35 1 14 -1 16 -4 7 -13 -9 -9 -18 -9 -36 0 -35 16 -144 -32 -143 -62 0 -12 -2
-39 -6 -61 l-6 -40 10 38 c6 20 17 37 25 37 17 0 18 17 2 23 -10 4 -10 7 0 18
11 12 13 12 10 0 -2 -7 3 -16 11 -19 10 -3 12 0 7 13 -5 15 -4 16 9 5 12 -10
15 -10 16 1 0 8 4 5 9 -6 5 -12 9 -14 9 -6 1 11 5 10 16 -5 15 -18 15 -18 8 0
-5 15 -3 17 8 11 8 -4 11 -5 7 0 -11 12 11 35 27 29 7 -3 18 4 25 15 6 12 17
21 25 21 8 0 15 8 15 19 0 10 9 21 20 24 14 4 20 14 21 34 0 15 3 23 5 16 3
-7 12 -9 20 -6 8 3 14 0 14 -7 0 -6 5 -8 11 -4 8 4 7 9 -2 15 -11 6 -10 9 4
15 9 3 17 14 17 23 0 13 2 13 9 2 7 -11 13 -10 34 4 14 9 34 15 44 13 10 -1
24 1 31 5 6 5 12 4 12 -1 0 -14 43 -2 53 14 4 7 14 11 22 8 8 -4 15 -1 15 5 0
6 5 11 11 11 5 0 7 -5 4 -11 -5 -7 -1 -7 11 -1 21 11 229 44 314 49 206 13
368 9 520 -12 173 -23 265 -40 310 -56 14 -5 36 -11 50 -13 58 -11 170 -53
163 -61 -4 -4 0 -5 11 -1 10 3 24 2 30 -2 18 -14 55 -21 62 -11 3 5 11 9 17 9
8 0 8 -3 -1 -9 -19 -12 30 -57 70 -65 16 -3 27 -10 23 -16 -4 -6 1 -7 11 -3
11 4 15 3 10 -5 -5 -8 2 -8 26 0 18 6 27 13 20 16 -10 3 -10 7 -1 18 6 8 14
12 18 10 4 -3 8 4 8 15 2 25 -14 25 -22 -1 -3 -11 -11 -20 -16 -20 -6 0 -7 5
-3 12 5 7 2 9 -8 5 -24 -9 -87 14 -111 40 -12 12 -27 23 -34 23 -7 0 -65 17
-130 38 -201 66 -334 93 -553 116 -217 22 -265 24 -385 14z"/>
<path d="M1480 1942 c0 -4 -26 -8 -57 -9 -32 -1 -85 -2 -118 -3 -70 -2 -256
-37 -269 -51 -6 -5 -18 -9 -28 -9 -11 0 -32 -7 -48 -15 -16 -8 -38 -16 -48
-18 -11 -2 -27 -9 -36 -16 -9 -7 -16 -11 -16 -8 0 8 -107 -49 -145 -78 -43
-32 -225 -215 -225 -226 0 -5 -4 -9 -10 -9 -5 0 -10 -6 -10 -14 0 -8 -4 -16
-9 -18 -12 -4 -91 -105 -91 -115 0 -12 -38 -43 -53 -43 -20 0 -36 -21 -30 -39
4 -12 3 -13 -5 -3 -7 11 -15 8 -36 -13 -14 -14 -26 -22 -26 -17 0 4 5 13 12
20 9 9 8 12 -5 12 -9 0 -17 -7 -17 -15 0 -8 -4 -15 -10 -15 -5 0 -10 -5 -10
-11 0 -5 5 -7 12 -3 7 4 8 3 4 -4 -4 -7 -15 -12 -24 -13 -11 0 -12 -3 -4 -6
17 -7 15 -16 -8 -41 -16 -17 -17 -22 -6 -22 8 0 30 18 48 41 18 23 53 52 78
64 52 27 100 76 184 190 89 119 238 262 328 312 41 22 135 62 210 87 118 40
152 47 274 57 163 13 387 0 411 -25 12 -11 -20 -36 -47 -36 -15 0 -54 -14 -86
-31 -47 -25 -74 -32 -131 -34 -72 -3 -73 -3 -79 23 -21 102 -70 105 -115 7
-22 -49 -37 -68 -66 -83 -36 -19 -50 -14 -70 26 -30 61 -83 52 -83 -14 0 -31
-4 -35 -62 -62 -35 -16 -78 -35 -95 -42 -18 -7 -53 -37 -79 -66 -25 -30 -61
-61 -79 -68 -17 -8 -42 -28 -54 -45 -13 -17 -36 -38 -52 -47 -17 -8 -38 -28
-48 -45 -26 -43 -322 -239 -361 -239 -20 0 -42 -30 -42 -55 0 -14 -4 -22 -9
-19 -5 3 -9 -6 -9 -20 0 -14 -4 -26 -9 -26 -13 0 -25 -83 -17 -115 3 -13 16
-31 29 -40 39 -25 189 -63 252 -63 112 0 222 -22 264 -52 28 -21 42 -25 50
-17 8 8 11 8 11 0 0 -6 -5 -13 -12 -15 -8 -3 -7 -13 4 -36 9 -18 12 -34 7 -38
-12 -7 -12 -41 1 -49 6 -3 7 1 4 9 -6 16 10 23 19 9 2 -5 2 -1 0 7 -17 60 -7
71 26 29 13 -16 30 -29 39 -29 11 0 9 5 -8 20 -13 11 -20 23 -15 28 4 4 10 1
12 -5 3 -7 11 -13 18 -13 7 0 16 -6 19 -12 3 -7 5 -4 3 7 -1 11 -14 26 -29 33
-19 9 -25 18 -21 32 7 27 40 35 62 16 10 -9 25 -16 33 -16 17 0 88 -73 89 -93
5 -72 42 -123 83 -113 12 3 30 -2 40 -10 11 -8 32 -14 47 -14 14 0 37 -8 50
-19 51 -39 65 -42 93 -20 17 13 26 30 26 49 0 32 20 53 39 40 8 -4 20 -6 28
-3 8 3 41 -9 75 -27 58 -31 63 -32 107 -20 25 7 63 12 84 12 20 0 37 4 37 9 0
5 4 9 10 9 5 0 7 -6 4 -14 -3 -7 2 -16 10 -19 10 -4 16 -18 16 -35 0 -16 7
-35 15 -42 21 -18 19 -30 -7 -31 -34 -2 70 -17 124 -18 53 -1 60 9 55 79 -2
33 0 35 31 38 26 3 32 0 32 -16 0 -10 7 -19 15 -19 11 0 12 4 4 13 -11 13 -1
18 56 26 25 4 31 31 10 52 -12 12 -21 13 -35 6 -10 -6 -32 -10 -48 -10 -19 0
-32 -6 -36 -17 -5 -11 -10 -13 -14 -7 -10 16 -48 34 -56 27 -12 -12 -6 -91 9
-119 11 -22 12 -30 2 -36 -15 -9 -52 15 -52 35 0 9 -4 19 -8 23 -4 4 -7 0 -7
-8 0 -20 -46 -20 -62 0 -10 12 -10 16 -1 19 7 2 9 11 6 19 -3 8 0 14 6 14 20
0 11 16 -16 30 -16 8 -34 19 -42 25 -18 13 -54 13 -63 0 -4 -6 -8 -2 -8 8 0
11 -5 15 -11 11 -7 -4 -10 1 -7 12 2 11 9 20 16 20 6 1 17 2 24 3 8 1 9 4 2
11 -7 7 -19 6 -37 -2 -21 -10 -25 -18 -20 -37 4 -16 2 -22 -5 -17 -8 5 -10 1
-6 -9 5 -13 2 -15 -22 -9 -16 4 -34 11 -41 16 -8 7 -10 3 -6 -13 6 -23 -3 -22
-37 6 -8 7 -27 15 -42 19 -16 3 -28 11 -28 17 0 10 27 9 70 -2 9 -2 15 2 14
13 -1 14 3 15 24 7 15 -6 32 -15 38 -20 18 -15 25 5 10 27 -12 15 -11 22 2 44
16 25 16 25 -5 7 -25 -21 -79 -38 -99 -30 -22 8 -6 23 25 23 18 0 28 5 28 16
0 11 -6 14 -21 9 -12 -4 -32 -8 -46 -9 -17 -2 -25 -9 -25 -22 0 -14 -6 -19
-25 -17 -14 1 -44 3 -67 4 -49 3 -48 17 5 40 l37 16 -40 7 c-22 4 -55 11 -74
16 -22 6 -41 5 -53 -1 -15 -8 -24 -7 -38 6 -10 9 -22 15 -27 12 -5 -3 -17 2
-28 10 -19 15 -19 15 6 9 19 -4 29 -1 33 9 4 11 -1 13 -22 9 -20 -4 -33 0 -46
15 -11 12 -24 21 -31 21 -7 0 -20 9 -30 20 -10 11 -20 18 -22 16 -5 -5 15 -29
62 -77 l30 -30 -27 12 c-22 10 -29 9 -42 -4 -23 -23 -19 -33 4 -12 19 17 21
17 39 1 14 -12 20 -14 23 -5 3 9 16 5 44 -12 36 -22 39 -27 40 -72 1 -26 4
-50 7 -53 3 -3 21 -6 40 -6 38 0 71 -16 50 -25 -18 -7 -16 -30 2 -37 13 -5 13
-9 3 -25 -12 -19 -14 -20 -38 -4 -39 26 -51 45 -37 62 10 12 9 14 -5 8 -11 -4
-18 -2 -18 6 0 6 -7 1 -16 -11 -21 -30 -39 -28 -64 8 l-22 30 -18 -22 c-15
-19 -20 -21 -34 -9 -25 21 -17 64 14 72 23 7 23 7 -7 8 -30 1 -48 21 -42 47 4
16 -14 49 -33 62 -10 7 -18 23 -18 35 0 16 -3 18 -12 9 -8 -8 -5 -21 15 -51
37 -56 34 -64 -5 -16 -18 22 -32 43 -31 47 2 4 -6 8 -16 8 -14 0 -18 -6 -15
-22 4 -20 3 -20 -8 3 -21 43 -69 81 -54 44 3 -8 1 -15 -4 -15 -6 0 -10 4 -10
9 0 5 -7 11 -15 15 -10 4 -14 -1 -12 -17 1 -12 7 -26 12 -30 6 -5 2 -6 -8 -3
-10 3 -27 6 -36 6 -10 0 -23 10 -28 23 -9 19 -12 20 -18 6 -6 -15 -9 -14 -31
6 -13 12 -24 27 -24 33 0 7 -13 9 -35 5 -19 -3 -42 -2 -52 2 -10 4 -43 8 -73
10 -30 3 -66 6 -80 7 -20 2 -24 -1 -22 -17 2 -16 1 -17 -7 -5 -6 8 -11 11 -11
6 0 -5 -11 1 -25 14 -14 13 -25 18 -25 12 0 -7 -9 -6 -27 4 -16 7 -36 14 -45
14 -19 0 -33 17 -18 22 6 2 6 8 0 18 -8 13 -10 13 -10 -1 0 -26 -30 -32 -50
-9 -9 11 -20 17 -24 13 -3 -3 -6 -1 -6 6 0 8 8 11 18 9 10 -3 23 1 30 8 10 11
7 12 -20 7 -33 -6 -33 -6 -14 15 10 12 16 28 13 36 -4 9 -2 18 4 21 5 4 6 11
3 17 -4 6 -2 8 3 5 15 -9 22 12 17 51 -2 19 1 32 7 32 7 0 9 -11 7 -25 -7 -32
-4 -31 32 5 16 17 34 30 40 30 6 0 38 18 71 40 33 22 64 40 69 40 5 0 10 3 12
8 5 11 82 67 93 67 5 0 23 12 39 28 22 21 32 24 38 15 5 -8 6 2 4 25 -4 35 -3
37 25 37 19 0 28 4 24 11 -4 5 7 15 25 22 25 10 30 16 25 34 -5 20 -2 23 25
23 18 0 33 6 36 15 4 8 11 12 17 8 6 -4 8 2 5 15 -4 12 -2 22 3 22 5 0 9 -5 9
-11 0 -8 5 -8 15 1 8 7 15 18 15 24 0 7 13 24 28 39 37 36 85 37 108 2 8 -13
13 -28 10 -34 -3 -5 1 -12 10 -15 13 -5 14 -2 8 11 -4 10 -8 30 -8 45 -1 22
-5 27 -18 22 -14 -4 -16 -1 -11 13 7 19 22 33 36 33 5 0 6 -4 2 -9 -7 -12 34
-8 59 6 16 9 18 18 13 67 -5 51 -4 56 15 56 16 0 19 -5 14 -27 -7 -35 29 -86
45 -62 7 11 9 8 9 -11 l1 -25 18 23 c22 25 36 29 27 7 -3 -8 -1 -15 4 -15 6 0
10 7 10 16 0 8 4 13 9 9 6 -3 17 10 27 30 18 39 30 44 38 18 4 -14 4 -14 3 2
-2 33 25 115 38 115 14 0 18 -59 6 -75 -5 -5 -12 -21 -16 -35 -7 -24 -7 -24
12 -7 25 22 40 22 52 -2 11 -20 48 -34 56 -21 3 4 -2 10 -10 14 -8 3 -15 10
-15 16 0 13 37 13 45 0 8 -13 55 -13 55 1 0 6 9 8 20 4 11 -3 20 -3 20 2 0 4
19 17 43 28 23 11 45 24 49 30 5 6 8 5 8 -4 0 -8 6 -11 16 -7 9 4 22 2 29 -4
8 -7 16 -3 25 15 7 14 17 25 21 25 10 0 69 62 69 73 0 4 -22 7 -49 7 -28 0
-52 4 -55 9 -3 5 -15 7 -26 4 -11 -3 -20 -1 -20 3 0 5 -12 10 -27 10 -16 1
-50 2 -76 3 -29 0 -46 5 -42 11 3 6 1 10 -4 10 -6 0 -11 -3 -11 -8z m-228
-1324 c-17 -17 -15 -28 3 -22 10 4 15 0 15 -15 0 -14 6 -21 20 -21 11 0 20 -7
20 -15 0 -22 -14 -19 -49 11 -32 26 -42 68 -18 77 18 6 23 -1 9 -15z m108 -73
c0 -14 -4 -25 -9 -25 -5 0 -11 11 -13 25 -4 17 -1 25 8 25 8 0 14 -11 14 -25z"/>
<path d="M1970 1883 c0 -6 20 -21 44 -34 25 -13 43 -26 41 -29 -2 -4 5 -14 16
-23 10 -9 19 -13 19 -7 0 5 -8 14 -17 19 -10 6 -13 11 -6 11 18 0 88 -36 161
-84 35 -23 68 -41 73 -41 5 0 13 -5 17 -10 16 -22 83 -66 81 -54 -3 29 2 39
19 39 20 -1 62 -34 62 -50 0 -6 4 -9 9 -5 6 3 34 -13 63 -35 29 -22 59 -40 66
-40 7 0 10 -5 7 -11 -8 -12 15 -39 69 -82 l39 -31 -18 29 c-17 27 -14 26 23
-10 45 -42 52 -62 25 -72 -10 -3 -41 -16 -70 -29 -28 -13 -56 -24 -62 -24 -5
0 -12 -4 -16 -9 -10 -17 45 -1 102 29 60 32 106 41 66 13 -22 -15 -31 -43 -14
-43 4 0 21 12 36 26 21 20 25 28 15 34 -7 5 -18 19 -24 32 -14 31 -99 109
-123 112 -10 2 -18 9 -18 17 0 7 -10 18 -23 25 -30 15 -41 27 -17 18 11 -4 18
-5 15 -3 -3 2 -23 20 -45 39 -22 19 -32 26 -22 14 32 -39 17 -37 -28 5 -24 22
-70 57 -102 78 -32 20 -60 39 -63 43 -3 3 -12 9 -20 12 -8 4 -32 14 -53 23
-53 22 -37 1 21 -30 26 -13 57 -33 70 -43 20 -15 21 -20 9 -30 -11 -10 -29 -2
-92 40 -44 29 -106 67 -138 83 -33 17 -59 34 -58 39 3 9 -18 26 -31 26 -4 0
-5 -7 -2 -15 5 -11 2 -13 -10 -9 -9 3 -14 10 -11 15 3 4 -3 13 -14 18 -14 8
-21 8 -24 -2 -3 -8 -10 -7 -26 7 -11 11 -21 15 -21 9z"/>
<path d="M1840 1855 c-7 -8 -9 -15 -4 -15 4 0 3 -5 -4 -12 -16 -16 -15 -65 2
-71 9 -4 12 -15 8 -32 -4 -24 -3 -26 14 -17 11 5 26 7 34 4 8 -3 4 5 -10 17
l-25 21 46 -6 c43 -5 47 -4 51 19 4 20 1 23 -19 19 -13 -2 -23 1 -23 7 0 6 -8
11 -19 11 -25 0 -48 27 -27 32 12 2 13 6 2 21 -12 15 -15 15 -26 2z"/>
<path d="M705 1819 c-8 -37 -3 -45 16 -22 9 11 10 14 2 9 -7 -4 -13 -2 -13 3
0 6 10 11 21 11 18 0 19 2 9 15 -19 22 -28 18 -35 -16z"/>
<path d="M1730 1788 c-29 -24 -61 -48 -71 -54 -10 -6 -16 -14 -12 -17 6 -6 -4
-9 -23 -6 -4 0 -10 -3 -13 -8 -14 -19 -62 -33 -81 -23 -22 12 -96 12 -124 1
-24 -9 -13 -16 37 -25 26 -5 37 -3 37 6 0 9 3 9 12 0 9 -9 9 -15 0 -24 -36
-36 8 -37 80 -3 58 28 132 91 123 105 -3 4 17 25 45 45 45 33 57 45 46 45 -2
0 -28 -19 -56 -42z"/>
<path d="M2180 1815 c0 -2 21 -18 48 -36 l47 -32 -34 36 c-30 32 -61 48 -61
32z"/>
<path d="M2577 1748 c-8 -28 -1 -38 25 -38 17 0 18 -2 8 -15 -10 -13 -9 -15
10 -15 13 0 24 -8 27 -19 3 -11 11 -22 19 -25 8 -3 14 -13 14 -21 0 -9 -4 -13
-10 -10 -5 3 -10 1 -10 -4 0 -6 8 -11 18 -11 19 0 29 44 12 55 -6 4 -8 10 -5
15 3 5 1 11 -5 15 -5 3 -10 11 -10 16 0 6 28 -20 63 -56 34 -37 71 -71 82 -77
12 -5 7 3 -12 21 -18 17 -35 42 -39 55 -7 31 -67 86 -92 86 -10 0 -27 7 -38
15 -22 17 -38 20 -29 5 3 -5 1 -10 -5 -10 -7 0 -9 8 -5 20 3 11 2 20 -3 20 -5
0 -12 -10 -15 -22z"/>
<path d="M1741 1735 c-22 -27 -21 -45 4 -45 12 0 45 47 45 65 0 14 -29 2 -49
-20z"/>
<path d="M2150 1741 c0 -9 -9 -12 -26 -8 -20 3 -28 0 -31 -13 -3 -12 -25 -24
-65 -35 -33 -9 -58 -18 -56 -20 2 -3 28 2 58 10 29 8 57 12 62 9 5 -3 8 -2 7
3 -4 23 3 33 25 33 25 0 43 16 32 27 -3 4 -6 1 -6 -6z"/>
<path d="M1242 1679 c-10 -16 -10 -19 3 -19 17 0 18 -2 9 -24 -3 -9 -12 -16
-19 -16 -20 0 -27 -17 -16 -37 10 -16 10 -17 11 -1 0 9 5 20 11 24 7 4 9 -2 7
-17 -3 -20 -12 -25 -68 -35 -96 -19 -97 -18 -92 15 2 16 0 31 -5 34 -5 3 -10
-10 -11 -30 -2 -20 -5 -40 -8 -44 -3 -5 23 -7 58 -5 35 2 52 2 39 -1 -65 -13
-177 -183 -120 -183 5 0 9 9 9 21 0 14 5 19 14 16 10 -4 12 0 9 14 -6 23 5 24
31 4 37 -28 52 -17 21 15 -16 17 -24 30 -18 30 5 0 18 -9 28 -20 10 -11 20
-18 23 -16 2 3 14 -7 26 -21 13 -14 32 -27 43 -28 20 -1 63 -35 46 -35 -4 0
-1 -5 7 -11 11 -8 12 -12 3 -16 -22 -8 -14 -26 9 -20 15 4 30 -1 44 -14 16
-15 24 -17 30 -8 5 8 -9 26 -40 52 -38 32 -44 42 -35 54 11 12 6 13 -30 9 -25
-3 -39 -1 -36 5 4 5 2 9 -4 9 -6 0 -18 12 -26 28 -9 15 -14 19 -11 9 9 -29
-10 -11 -24 23 -7 16 -17 30 -22 30 -18 0 28 37 55 44 15 4 25 11 22 16 -6 9
70 19 143 18 41 -1 55 -11 30 -22 -7 -3 -1 -3 14 0 15 3 35 1 45 -5 10 -6 13
-11 8 -11 -6 0 -11 -10 -12 -22 -1 -18 2 -16 17 12 12 22 19 28 20 18 0 -10 5
-18 10 -18 15 0 12 17 -7 35 -16 16 -13 17 48 11 35 -4 84 -14 109 -21 25 -8
60 -16 78 -17 19 -1 36 -6 38 -10 3 -4 14 -8 25 -8 22 0 24 -10 7 -30 -7 -8
-3 -6 9 4 21 17 24 17 68 1 25 -10 48 -22 51 -26 3 -5 13 -9 23 -9 10 0 28 -9
41 -20 13 -11 27 -20 32 -20 4 0 8 -7 8 -15 0 -17 29 -34 48 -28 16 6 16 23
-1 23 -7 0 -26 14 -43 31 -16 17 -52 44 -79 60 -55 31 -123 95 -112 105 7 8
14 3 127 -85 74 -57 80 -60 64 -31 -11 17 -28 36 -39 42 -11 6 -30 23 -43 39
-13 16 -27 29 -32 29 -5 0 -21 5 -37 12 -15 6 -36 10 -45 9 -10 -1 -18 3 -18
10 0 8 13 10 46 5 26 -3 53 -6 61 -6 9 0 13 -6 10 -14 -5 -12 3 -14 38 -11 36
3 50 -2 82 -25 21 -16 42 -30 46 -30 16 0 82 -34 97 -49 13 -13 13 -14 -5 -7
-29 12 -57 13 -62 1 -2 -6 10 -25 27 -43 16 -18 30 -40 30 -48 0 -25 -52 12
-86 61 -34 50 -43 52 -18 3 10 -18 18 -35 19 -38 0 -3 13 -18 28 -34 15 -16
27 -32 27 -36 0 -4 14 -7 30 -6 29 1 30 3 25 34 -3 19 -12 40 -20 48 -8 9 -15
20 -15 25 0 13 18 11 22 -3 6 -18 40 -18 56 0 7 9 11 11 7 4 -4 -7 -3 -12 2
-11 33 6 54 -5 73 -37 31 -49 21 -51 -24 -5 -36 37 -71 46 -59 15 3 -8 0 -14
-7 -14 -6 0 -9 4 -6 9 3 5 -1 11 -8 14 -10 4 -14 -1 -13 -14 1 -13 9 -19 23
-19 13 0 25 -8 29 -19 4 -13 12 -17 25 -14 11 3 27 0 35 -7 17 -14 20 -50 5
-50 -5 0 -10 -12 -10 -26 0 -21 -4 -25 -18 -22 -12 3 -24 -2 -31 -14 -11 -17
-10 -18 8 -9 11 6 36 11 55 11 29 0 38 -5 51 -30 19 -36 19 -67 0 -100 -21
-36 -19 -38 24 -33 32 4 44 0 71 -25 31 -27 33 -30 21 -63 -6 -18 -8 -29 -4
-24 5 6 19 23 33 39 14 16 19 26 11 21 -11 -6 -13 -3 -9 13 5 16 1 22 -16 24
-11 2 -22 10 -22 18 -1 8 -2 22 -3 30 -1 12 -3 13 -10 1 -12 -19 -51 4 -52 32
-1 12 -2 34 -3 49 -2 22 3 27 28 32 22 5 35 1 53 -16 19 -18 23 -19 17 -5 -5
14 -2 16 12 11 11 -4 24 -12 29 -18 13 -14 45 -20 45 -8 0 5 29 3 66 -4 59
-13 70 -12 102 3 21 9 45 23 55 31 13 12 20 13 29 4 8 -8 7 -13 -5 -18 -25 -9
-21 -23 6 -18 12 2 16 2 10 -2 -22 -10 -15 -33 7 -27 11 3 20 0 20 -6 0 -6 11
-11 25 -11 32 0 31 7 -1 33 -25 19 -26 23 -19 82 5 46 3 65 -6 71 -9 5 -10 2
-6 -9 4 -10 0 -20 -11 -26 -16 -10 -15 -10 2 -11 18 0 18 -1 1 -20 -20 -22
-51 -28 -39 -7 4 6 -8 -3 -27 -20 -29 -27 -44 -33 -92 -37 -45 -3 -63 0 -81
15 -13 11 -31 16 -44 12 -13 -3 -33 3 -50 16 -23 16 -41 20 -75 17 -64 -6
-102 6 -101 32 0 11 -4 20 -9 19 -5 -1 -12 4 -15 12 -3 10 2 12 22 7 31 -8 35
9 5 24 -11 7 -19 14 -16 16 3 3 26 -9 51 -27 26 -17 50 -29 52 -26 3 3 -7 13
-23 23 -15 10 -50 39 -78 64 -28 26 -70 52 -95 60 -48 15 -63 28 -55 48 2 6
-3 13 -13 13 -40 4 -49 6 -87 23 -22 10 -59 34 -82 53 -24 19 -43 29 -43 22 0
-9 -3 -9 -14 0 -8 7 -27 17 -43 22 l-28 9 27 -4 c16 -2 25 1 22 6 -4 6 -20 8
-37 5 -17 -2 -47 0 -66 4 -20 5 -61 11 -91 14 -30 3 -63 8 -73 11 -22 7 -36
-24 -16 -37 8 -5 23 -8 33 -6 33 4 29 -23 -6 -38 l-33 -14 30 -1 c17 0 40 -3
53 -6 18 -5 22 -2 22 15 0 11 4 21 9 21 10 0 102 -93 97 -97 -1 -1 -24 5 -51
13 -116 35 -280 62 -389 63 l-39 1 6 36 c6 36 6 36 -25 32 -23 -4 -36 1 -56
21 -24 24 -26 24 -33 6 -6 -16 -8 -16 -8 -4 -2 29 -25 40 -39 18z m92 -45 c3
-8 2 -12 -4 -9 -5 3 -7 0 -4 -8 3 -8 14 -12 28 -10 16 3 25 -1 30 -13 3 -9 5
-18 4 -19 -8 -7 -128 -10 -128 -3 0 7 59 78 65 78 2 0 6 -7 9 -16z"/>
<path d="M277 1640 c-16 -16 -32 -30 -37 -30 -5 0 -18 -16 -30 -36 -17 -26
-20 -38 -11 -47 6 -6 11 -8 11 -3 0 4 7 1 15 -8 19 -19 19 -36 -1 -36 -8 0
-13 4 -10 9 7 11 -11 26 -41 35 -18 6 -22 4 -17 -8 4 -9 0 -18 -10 -22 -9 -3
-13 -10 -10 -16 6 -9 -6 -47 -30 -98 -6 -13 -28 -40 -49 -59 -21 -19 -36 -40
-33 -47 3 -7 1 -16 -4 -19 -16 -10 -12 -35 11 -72 18 -29 23 -33 31 -19 13 23
31 20 25 -5 -5 -20 -5 -20 13 -4 10 9 23 14 28 11 17 -10 44 5 33 18 -5 6 -11
24 -13 40 -4 38 -25 45 -34 12 -3 -14 -13 -26 -21 -26 -8 0 -12 -4 -9 -8 3 -5
-1 -9 -9 -9 -8 0 -15 4 -15 9 0 5 -5 6 -12 2 -8 -5 -9 -2 -5 10 4 10 9 30 12
44 5 26 5 26 -10 -3 -14 -27 -15 -27 -11 -5 3 14 6 31 6 37 0 8 9 11 22 9 18
-3 23 -10 21 -30 -1 -14 2 -26 8 -26 10 0 11 2 14 53 1 21 10 46 19 55 15 16
16 14 12 -21 -3 -21 -8 -43 -12 -49 -4 -7 -3 -8 4 -4 7 4 12 1 12 -6 0 -7 9
-2 19 11 10 14 17 30 14 37 -2 7 0 15 6 19 6 3 11 14 11 23 0 14 -1 14 -13 -1
-11 -16 -13 -16 -30 4 -18 20 -18 21 5 13 20 -6 21 -5 10 8 -10 12 -10 18 1
27 8 6 17 8 21 4 4 -4 4 1 0 11 -7 18 -8 18 -21 1 -7 -10 -15 -16 -19 -13 -3
3 6 17 20 31 16 16 24 33 21 44 -3 10 1 5 9 -12 8 -16 12 -34 8 -39 -3 -5 0
-6 7 -2 6 4 9 11 6 16 -5 9 25 23 33 15 3 -3 -2 -13 -11 -23 -21 -23 -21 -29
-2 -29 8 0 12 4 9 9 -3 4 1 8 10 8 14 0 15 13 4 85 -2 14 3 20 17 20 11 0 19
-5 18 -12 -2 -7 4 -10 12 -7 18 7 19 20 3 31 -19 11 -50 4 -65 -15 -11 -15
-12 -15 -13 5 0 12 -6 24 -12 27 -7 3 -3 3 10 0 13 -3 22 -1 22 6 0 6 -4 8
-10 5 -5 -3 -10 -2 -10 4 0 16 24 18 39 4 20 -21 39 1 20 23 -12 16 -12 17 1
12 12 -4 16 2 18 23 1 16 1 29 0 29 -2 0 -16 -13 -31 -30z"/>
<path d="M1070 1657 c0 -8 9 -22 20 -32 11 -10 20 -26 20 -37 0 -23 18 -24 27
0 4 9 16 25 28 35 l20 18 -22 -12 c-18 -11 -26 -9 -57 15 -24 18 -36 23 -36
13z"/>
<path d="M1986 1653 c-17 -4 -16 -6 5 -17 17 -9 29 -9 42 -2 35 22 8 33 -47
19z"/>
<path d="M483 1626 c-15 -12 -35 -21 -43 -19 -10 3 -11 2 -3 -4 8 -6 3 -18
-19 -43 -25 -29 -27 -36 -14 -38 13 -3 14 -7 6 -17 -6 -8 -19 -11 -28 -8 -11
3 -13 2 -5 -4 8 -6 8 -12 -1 -25 -7 -10 -15 -16 -17 -13 -3 2 -5 -5 -6 -16 -2
-23 -49 -89 -64 -89 -5 0 -9 -4 -9 -9 0 -6 9 -9 19 -8 21 1 68 72 63 95 -2 6
4 12 11 12 14 0 23 13 25 33 1 4 11 17 24 27 13 11 17 19 11 20 -34 1 12 70
46 70 14 0 21 6 21 20 0 13 7 20 20 20 11 0 20 5 20 10 0 17 -27 11 -57 -14z"/>
<path d="M2776 1636 c3 -8 17 -22 30 -31 14 -9 29 -26 34 -38 l9 -22 0 23 c1
14 -12 36 -30 53 -34 31 -52 38 -43 15z"/>
<path d="M1420 1626 c0 -2 14 -14 30 -26 29 -20 38 -18 22 6 -7 12 -52 29 -52
20z"/>
<path d="M2295 1574 c-72 -27 -162 -31 -206 -8 -17 8 -33 13 -36 10 -3 -2 10
-12 29 -22 45 -24 137 -21 225 6 40 12 77 19 82 16 5 -4 12 -2 15 3 6 9 -17
22 -37 20 -7 -1 -39 -12 -72 -25z"/>
<path d="M344 1569 c-12 -19 -22 -79 -13 -73 5 3 9 12 9 20 0 8 7 26 16 39 9
14 12 25 6 25 -6 0 -14 -5 -18 -11z"/>
<path d="M2780 1540 c0 -5 6 -10 13 -10 6 0 13 -11 13 -25 1 -13 13 -38 27
-55 33 -39 43 -70 26 -81 -11 -6 -10 -9 4 -15 17 -6 16 -8 -4 -30 -16 -17 -18
-24 -8 -24 8 0 -1 -13 -20 -30 -19 -17 -32 -32 -29 -35 9 -10 77 50 78 68 0
10 5 15 10 12 6 -4 10 12 10 41 0 34 -8 62 -30 101 -16 29 -30 59 -30 67 0 14
-21 26 -46 26 -8 0 -14 -4 -14 -10z"/>
<path d="M826 1510 c3 -22 2 -30 -3 -23 -7 10 -20 2 -49 -29 -32 -34 -34 -39
-11 -25 15 10 27 14 27 10 0 -5 15 -13 33 -19 29 -9 39 -7 76 16 37 24 48 46
16 34 -7 -3 -23 0 -35 6 -19 10 -21 9 -20 -12 3 -37 1 -41 -15 -28 -17 14 -21
35 -5 25 14 -8 5 54 -9 68 -9 9 -10 3 -5 -23z"/>
<path d="M2016 1512 c-12 -19 20 -37 59 -32 l40 5 -43 18 c-49 20 -49 20 -56
9z"/>
<path d="M1725 1470 c5 -8 9 -25 10 -38 0 -13 10 -31 20 -39 11 -8 19 -19 18
-24 -2 -5 2 -9 7 -9 15 0 12 14 -8 36 -16 16 -17 20 -4 30 12 9 9 15 -18 34
-19 13 -30 18 -25 10z"/>
<path d="M950 1450 c0 -5 9 -14 21 -20 11 -7 18 -18 15 -25 -3 -9 0 -12 10 -8
23 8 16 39 -11 51 -31 14 -35 15 -35 2z"/>
<path d="M1386 1435 c-8 -21 1 -35 22 -36 11 0 12 -3 5 -6 -7 -2 -13 -14 -13
-25 0 -17 -4 -15 -26 12 -15 17 -29 29 -31 26 -3 -3 1 -12 9 -20 8 -8 14 -28
13 -45 -1 -17 0 -29 3 -26 3 3 10 0 17 -5 8 -7 12 -5 12 5 0 8 -6 16 -14 19
-7 3 -13 11 -13 18 0 9 3 9 12 0 17 -17 28 -15 28 6 1 15 2 15 16 -3 15 -19
15 -19 8 10 -4 17 -15 43 -24 58 -14 23 -19 25 -24 12z"/>
<path d="M1560 1443 c5 -2 10 -9 10 -14 0 -6 -4 -7 -10 -4 -6 4 -10 -6 -11
-22 0 -15 -2 -38 -3 -50 -4 -39 12 -25 17 15 3 20 7 46 9 56 1 10 -3 20 -10
22 -7 1 -8 0 -2 -3z"/>
<path d="M1458 1410 c-14 -24 -14 -31 -4 -37 8 -5 16 -17 19 -28 4 -11 4 -3 1
18 -3 22 -2 37 3 34 4 -3 9 6 9 19 2 32 -7 30 -28 -6z"/>
<path d="M1840 1418 c0 -16 -5 -28 -11 -28 -6 0 -9 6 -6 14 4 10 0 14 -14 13
-24 -2 -25 -23 0 -37 21 -11 22 -34 1 -53 -10 -10 -12 -9 -8 3 4 11 -3 16 -23
17 -26 2 -28 0 -17 -17 10 -15 10 -22 0 -32 -9 -9 -12 -8 -12 9 0 28 -28 38
-32 12 -3 -19 -4 -19 -23 -4 -17 14 -17 16 -2 11 10 -3 17 0 17 8 0 8 3 22 6
31 7 18 -23 -9 -66 -60 l-25 -29 29 18 c21 13 31 15 39 7 9 -9 6 -13 -11 -17
-12 -4 -22 -10 -22 -15 0 -11 53 -6 62 6 12 17 58 16 58 -1 0 -9 -5 -12 -12
-8 -7 4 -8 3 -4 -4 10 -17 52 2 48 22 -3 17 17 18 31 1 5 -6 6 -2 3 9 -4 10
-1 25 5 32 8 10 8 14 0 14 -6 0 -11 5 -11 10 0 6 8 10 18 10 13 0 14 2 3 9 -7
5 -11 17 -7 27 3 11 1 26 -4 34 -8 12 -10 9 -10 -12z"/>
<path d="M707 1409 c-10 -11 -15 -24 -12 -28 2 -5 -2 -26 -10 -47 -14 -35 -15
-36 -11 -9 5 33 -8 65 -21 52 -4 -5 -1 -13 7 -18 11 -8 12 -12 3 -16 -7 -2
-13 -20 -13 -39 0 -19 -5 -34 -11 -34 -6 0 -26 -17 -45 -37 -21 -24 -34 -32
-34 -23 0 11 -3 11 -11 -3 -13 -22 -10 -26 20 -29 16 -2 29 5 40 22 17 27 70
88 109 126 22 22 30 40 12 29 -7 -4 -8 8 -4 34 7 46 6 47 -19 20z"/>
<path d="M1893 1423 c-7 -2 -13 -11 -13 -19 0 -9 5 -12 10 -9 6 3 10 -1 10 -9
0 -9 -4 -16 -9 -16 -7 0 -31 -51 -31 -66 0 -1 9 -2 20 -1 21 1 29 17 8 17 -6
0 -8 3 -4 7 11 11 46 -38 46 -64 0 -16 4 -21 15 -17 8 4 15 1 15 -5 0 -6 -7
-11 -15 -11 -8 0 -12 -6 -9 -14 4 -9 -2 -13 -18 -12 -13 0 -23 -5 -23 -12 0
-7 -6 -16 -14 -21 -10 -6 -5 -12 18 -22 17 -8 31 -17 31 -21 0 -5 6 -8 14 -8
8 0 16 -6 19 -12 2 -7 12 4 21 26 19 46 19 47 4 43 -9 -1 -12 8 -10 30 2 22
-3 38 -17 52 -12 12 -21 26 -21 31 0 6 -4 10 -10 10 -5 0 -10 5 -10 11 0 6 6
9 13 6 10 -4 13 3 12 22 -2 30 -19 66 -32 66 -4 0 -7 6 -7 13 1 6 1 12 0 11 0
0 -7 -3 -13 -6z m67 -281 c0 -8 -6 -12 -12 -9 -7 2 -12 10 -10 16 1 6 -8 11
-20 11 -18 0 -20 2 -9 9 17 11 51 -7 51 -27z"/>
<path d="M1602 1370 c0 -14 -3 -36 -6 -50 -5 -17 -1 -13 13 12 12 20 25 40 31
43 17 11 11 20 -14 20 -20 0 -25 -5 -24 -25z"/>
<path d="M825 1369 c-16 -4 -22 -7 -12 -8 9 0 17 -5 17 -11 0 -5 9 -14 20 -20
16 -9 18 -8 14 5 -4 8 -1 15 5 15 15 0 14 17 -1 22 -7 2 -26 1 -43 -3z"/>
<path d="M1079 1367 c-18 -14 -14 -35 13 -58 10 -9 18 -21 18 -27 0 -6 7 -9
16 -5 13 5 11 10 -10 32 -43 45 -29 55 26 20 28 -18 30 -20 8 -14 -23 6 -24 5
-7 -9 11 -8 25 -12 32 -10 7 3 25 -2 40 -12 19 -12 29 -14 37 -6 8 8 5 17 -13
31 -13 11 -31 20 -39 21 -9 0 -26 7 -38 16 -12 8 -22 13 -22 9 0 -3 -10 1 -22
9 -18 12 -26 12 -39 3z"/>
<path d="M942 1345 c-11 -13 -8 -15 18 -15 21 0 30 4 28 13 -7 18 -31 19 -46
2z"/>
<path d="M1987 1336 c-5 -11 -3 -15 5 -10 8 5 9 2 5 -9 -10 -27 2 -45 25 -39
14 3 19 1 14 -6 -4 -7 -2 -12 4 -12 6 0 8 -5 5 -11 -4 -6 -12 -8 -19 -6 -7 3
-13 -5 -14 -19 -1 -13 3 -24 8 -24 6 0 10 8 10 18 0 13 2 14 9 3 6 -9 2 -20
-10 -32 -11 -11 -19 -29 -18 -41 1 -18 3 -16 10 10 14 48 21 39 13 -18 -5 -38
-4 -50 6 -48 7 2 14 -5 15 -15 2 -9 -1 -15 -6 -11 -16 10 -49 -20 -38 -36 7
-13 9 -13 9 1 0 9 7 16 14 16 11 0 12 -5 5 -18 -5 -10 -9 -27 -9 -38 0 -19
-10 -26 -33 -22 -11 2 -41 -70 -38 -94 2 -17 0 -17 -8 -5 -9 12 -11 10 -11
-12 0 -28 -21 -50 -28 -30 -2 7 -8 12 -12 12 -5 0 -3 -12 5 -27 16 -31 16 -32
-15 -38 -13 -2 -30 -11 -40 -20 -9 -8 -22 -15 -28 -15 -6 0 -14 -5 -18 -12 -4
-7 -3 -8 4 -4 15 9 15 -7 1 -21 -8 -8 -20 -8 -35 -3 -31 12 -54 3 -47 -18 4
-14 3 -14 -5 -3 -8 11 -22 12 -63 6 -30 -5 -67 -9 -84 -11 -16 -1 -58 -6 -93
-10 -57 -6 -65 -5 -88 17 -15 14 -28 19 -32 13 -9 -13 -32 -12 -57 3 -17 11
-18 14 -5 23 12 8 10 10 -10 10 -36 0 -54 15 -48 38 4 13 -1 27 -12 37 -17 15
-18 15 -16 -2 0 -10 5 -21 11 -25 14 -10 -10 -32 -25 -23 -6 4 -9 16 -7 27 4
14 2 16 -6 10 -8 -6 -20 -2 -37 14 -21 20 -22 24 -7 24 12 0 16 -5 11 -12 -5
-10 -3 -9 7 0 12 11 11 15 -3 23 -10 6 -18 18 -18 27 0 9 -5 24 -11 32 -8 11
-9 9 -3 -10 6 -22 5 -24 -10 -11 -9 8 -27 28 -38 44 l-21 30 22 19 23 18 -41
-3 c-35 -3 -42 0 -46 17 -2 12 -6 30 -8 41 -4 15 -5 13 -6 -7 -1 -38 60 -166
78 -160 10 3 11 -2 6 -18 -6 -19 -4 -22 9 -17 10 4 15 3 11 -3 -3 -6 -1 -10 5
-10 6 0 8 -4 5 -10 -3 -5 -2 -10 3 -10 5 0 14 -11 20 -24 17 -37 107 -104 150
-111 20 -3 46 -11 57 -18 12 -7 80 -12 175 -14 193 -3 290 15 371 69 55 37
117 98 99 98 -6 0 3 18 19 41 16 22 33 53 36 70 4 16 13 29 21 29 11 0 13 6 9
21 -5 14 -2 25 6 30 11 7 11 9 1 9 -7 0 -10 5 -7 10 3 6 10 32 14 60 6 40 5
50 -8 55 -13 5 -13 8 -2 15 10 6 13 23 9 67 -6 64 -32 128 -49 118 -5 -4 -7
-11 -4 -16 4 -5 0 -9 -8 -9 -8 0 -18 10 -24 22 -8 19 -10 20 -16 4z"/>
<path d="M999 1295 c-9 -25 -15 -45 -14 -45 5 0 45 71 45 81 0 24 -17 5 -31
-36z"/>
<path d="M716 1281 c-30 -30 -34 -40 -22 -44 10 -4 20 2 27 16 6 12 20 29 32
38 11 9 15 19 10 22 -5 3 -27 -11 -47 -32z"/>
<path d="M1056 1305 c3 -8 10 -15 15 -15 5 0 9 -5 9 -10 0 -6 -11 -3 -24 5
-21 14 -24 14 -30 -1 -3 -8 -4 -20 0 -25 3 -5 0 -9 -6 -9 -6 0 -8 -5 -5 -10 4
-6 1 -17 -5 -25 -6 -8 -8 -20 -4 -26 4 -7 3 -9 -3 -6 -17 11 -8 -51 11 -71 9
-10 16 -23 16 -28 0 -5 14 -24 31 -41 29 -32 49 -42 49 -24 0 5 30 21 68 37
37 16 81 36 97 46 17 10 37 18 46 18 12 0 18 13 23 48 6 43 4 49 -21 69 -16
13 -37 23 -48 23 -18 0 -18 -1 3 -16 55 -38 52 -82 -8 -109 -22 -10 -40 -22
-40 -27 0 -4 -8 -8 -18 -8 -10 0 -35 -9 -57 -20 -22 -11 -46 -20 -55 -20 -17
0 -50 48 -62 89 -9 31 24 111 46 111 24 0 19 23 -9 43 -20 14 -24 15 -19 2z"/>
<path d="M1465 1293 c-11 -3 -32 -16 -46 -29 -14 -13 -28 -21 -32 -17 -8 7
-11 -30 -9 -102 1 -27 6 -51 12 -53 5 -2 10 -10 10 -17 0 -20 63 -45 109 -42
22 1 41 6 41 11 0 4 9 6 20 3 12 -3 18 -1 14 5 -6 10 30 50 38 42 3 -2 5 2 6
8 0 7 4 30 7 50 6 29 3 44 -14 72 -40 64 -88 85 -156 69z m111 -57 c46 -46 46
-86 1 -131 -19 -19 -46 -37 -61 -41 -53 -13 -110 31 -116 91 -5 41 1 57 29 86
43 43 101 41 147 -5z"/>
<path d="M878 1268 c-6 -16 32 -47 49 -41 8 3 3 13 -14 29 -30 28 -30 28 -35
12z"/>
<path d="M2680 1260 c-19 -6 -20 -8 -6 -9 16 -1 16 -3 -5 -20 -31 -25 -19 -37
18 -18 15 8 43 18 62 22 l35 7 -25 14 c-27 15 -42 16 -79 4z"/>
<path d="M790 1250 c0 -6 4 -9 9 -5 5 3 15 -10 21 -29 8 -26 15 -33 27 -29 10
4 14 2 9 -5 -3 -6 -3 -13 2 -16 4 -2 14 5 21 17 8 12 10 19 6 15 -4 -4 -15 7
-24 25 -11 22 -24 33 -43 35 -16 2 -28 -2 -28 -8z"/>
<path d="M1825 1250 c3 -5 -3 -10 -14 -10 -12 0 -21 -4 -21 -10 0 -5 -13 -2
-28 7 -27 16 -29 15 -71 -15 -50 -36 -49 -42 2 -12 32 19 67 19 67 0 0 -4 15
-10 33 -13 17 -3 42 -8 55 -12 18 -6 21 -4 16 9 -4 10 -1 16 9 16 10 0 15 8
14 20 -1 20 -17 29 -17 9 0 -5 -5 -7 -10 -4 -6 4 -8 11 -5 16 4 5 -3 9 -15 9
-12 0 -18 -4 -15 -10z"/>
<path d="M2575 1240 c-24 -3 -35 -8 -28 -13 14 -9 93 -5 93 4 0 12 -24 15 -65
9z"/>
<path d="M647 1203 c-14 -13 -7 -29 13 -30 14 -1 20 4 20 18 0 18 -20 26 -33
12z"/>
<path d="M427 1135 c-25 -19 -50 -35 -55 -35 -5 0 -16 -7 -23 -17 -16 -19 -12
-17 57 19 50 26 81 54 72 63 -3 3 -26 -11 -51 -30z"/>
<path d="M613 1155 c-7 -8 -13 -19 -13 -25 0 -5 -9 -10 -20 -10 -17 0 -20 -7
-20 -37 1 -35 2 -37 15 -19 8 10 12 22 10 26 -9 14 27 20 43 8 14 -11 15 -10
7 7 -4 11 -8 30 -8 43 1 26 2 25 -14 7z"/>
<path d="M823 1158 c-5 -7 -10 -24 -11 -38 -1 -14 2 -20 6 -14 9 14 45 27 37
14 -3 -6 1 -13 9 -16 9 -3 16 -12 16 -19 0 -8 8 -11 19 -8 12 3 19 13 18 26
-1 27 -14 37 -49 37 -20 0 -26 4 -22 15 7 18 -10 20 -23 3z"/>
<path d="M2625 1133 c19 -15 18 -15 -17 -10 -21 3 -40 2 -43 -3 -7 -11 90 -43
112 -37 12 3 8 5 -9 6 -15 0 -30 6 -34 12 -8 13 40 8 94 -9 18 -6 30 -7 27 -1
-4 5 1 9 10 9 25 0 12 -24 -16 -30 -21 -5 -19 -7 19 -17 24 -6 44 -7 48 -2 3
5 -2 9 -10 9 -18 0 -21 16 -6 25 6 3 10 15 10 25 0 16 -7 18 -60 16 -39 -2
-60 1 -60 8 0 6 -4 5 -9 -3 -7 -11 -13 -11 -32 3 -30 21 -50 20 -24 -1z"/>
<path d="M415 1088 l-30 -18 28 0 c28 0 29 -2 23 -37 -3 -21 -8 -64 -11 -95
-5 -48 -3 -58 10 -58 8 0 15 5 15 10 0 6 13 5 33 -4 l33 -13 -13 66 c-18 83
-22 87 -17 17 2 -31 2 -56 0 -56 -3 0 -11 3 -20 6 -25 10 -20 154 5 154 5 0 9
-8 9 -18 0 -10 7 -19 15 -19 22 0 19 10 -18 49 l-32 34 -30 -18z"/>
<path d="M2515 1100 c-3 -5 1 -12 9 -17 7 -4 16 -17 19 -28 3 -14 5 -10 6 11
1 31 -22 54 -34 34z"/>
<path d="M1957 1073 c-5 -7 -19 -13 -33 -13 -20 0 -25 -4 -22 -22 2 -12 10
-23 18 -25 13 -4 13 -3 0 6 -13 9 -12 11 3 11 12 0 16 4 11 13 -5 8 -2 7 9 -2
21 -17 30 -10 25 21 -2 16 -6 19 -11 11z"/>
<path d="M2925 1070 c-4 -6 1 -10 10 -10 9 0 14 -4 11 -9 -3 -4 -28 -6 -56 -3
-60 6 -69 -13 -12 -27 87 -21 82 -22 82 14 0 32 -23 55 -35 35z"/>
<path d="M334 1046 c-22 -12 -39 -27 -37 -33 2 -6 -7 -19 -21 -30 -28 -22 -38
-64 -17 -71 9 -3 11 0 6 8 -5 8 -4 11 3 6 6 -4 9 -12 6 -19 -9 -26 80 -58 208
-76 49 -6 55 -5 51 10 -3 9 -15 20 -26 23 -37 10 -43 6 -17 -9 39 -22 13 -18
-86 15 -51 17 -100 40 -109 50 -17 19 -17 20 21 35 21 9 49 20 62 25 28 12 50
56 35 71 -8 8 -23 3 -52 -17 -23 -15 -44 -24 -47 -21 -3 3 8 13 24 21 17 9 34
20 37 26 3 5 5 9 3 9 -2 -1 -21 -11 -44 -23z"/>
<path d="M2572 1054 c-6 -10 -6 -29 -1 -47 5 -16 6 -33 4 -38 -3 -4 -1 -10 5
-14 5 -3 10 1 10 11 0 13 7 16 35 11 22 -4 35 -2 35 5 0 7 4 7 13 1 6 -6 30
-16 51 -23 41 -13 90 -56 80 -71 -3 -5 0 -9 6 -9 7 0 10 7 6 15 -6 18 -5 18
28 5 16 -6 24 -15 20 -24 -3 -8 3 -19 16 -26 11 -6 18 -15 16 -19 -3 -4 8 -21
24 -36 30 -29 32 -49 3 -38 -9 4 -25 15 -35 25 -10 10 -23 18 -30 18 -9 0 -9
-3 -1 -11 22 -22 -35 -57 -57 -36 -10 9 -11 9 -6 0 4 -8 1 -13 -8 -13 -28 0
-18 -16 40 -66 l57 -48 -24 42 c-24 43 -24 43 -4 58 12 9 30 12 47 9 20 -5 33
-1 50 16 16 15 19 23 11 26 -7 3 -13 11 -13 18 0 8 -9 17 -20 20 -11 3 -20 11
-20 17 0 6 6 6 15 -2 30 -25 16 15 -21 58 l-35 42 28 11 c41 15 67 41 51 50
-6 4 -21 1 -32 -7 -26 -18 -44 -18 -79 1 -25 13 -32 13 -59 -1 -28 -14 -31
-14 -47 4 -9 11 -28 22 -41 24 -17 2 -26 10 -28 26 -2 16 -10 22 -27 22 -13 0
-30 3 -38 6 -9 3 -19 -2 -25 -12z"/>
<path d="M233 1004 c-14 -30 -23 -57 -21 -59 2 -2 16 23 30 55 14 33 24 60 22
60 -3 0 -17 -25 -31 -56z"/>
<path d="M1370 1050 c0 -5 -6 -10 -14 -10 -19 0 -27 -37 -9 -44 20 -8 19 -9
38 22 l18 27 -24 -20 -23 -20 17 28 c10 15 13 27 7 27 -5 0 -10 -4 -10 -10z"/>
<path d="M1691 1038 c-6 -13 -9 -15 -6 -5 3 10 1 15 -5 12 -11 -7 -14 -35 -4
-35 16 0 44 23 44 35 0 22 -15 18 -29 -7z"/>
<path d="M561 970 c2 -80 25 -134 56 -136 11 -1 25 -4 31 -8 6 -4 8 2 5 15 -5
17 -2 20 13 17 10 -2 27 5 37 15 12 12 22 15 30 9 22 -18 55 -17 76 2 21 19
21 19 21 -12 0 -23 5 -32 17 -32 13 0 14 3 5 12 -7 7 -12 20 -12 29 0 25 -21
35 -32 15 -12 -22 -51 -20 -72 3 -17 18 -18 18 -41 -5 -66 -66 -148 11 -110
102 19 46 19 44 -5 44 -19 0 -21 -6 -19 -70z"/>
<path d="M1560 1024 c0 -13 57 -104 65 -104 4 0 4 4 1 9 -3 5 1 11 8 14 8 3
17 1 20 -6 3 -9 7 -8 14 2 6 9 17 11 28 7 15 -6 14 -2 -5 18 -29 31 -34 32
-26 6 8 -25 -3 -26 -21 -2 -12 14 -13 14 -8 1 3 -10 -1 -19 -10 -22 -9 -4 -16
-2 -16 4 0 5 -11 27 -25 47 -14 20 -25 32 -25 26z"/>
<path d="M1252 1012 c-12 -8 -10 -13 39 -70 6 -7 8 -19 6 -26 -3 -7 3 -20 14
-29 16 -14 19 -15 19 -2 0 8 -6 15 -12 15 -9 0 -8 4 2 10 10 6 11 10 3 10 -18
0 -16 36 3 54 14 15 14 16 0 16 -9 0 -16 -7 -16 -15 0 -8 -3 -15 -6 -15 -10 0
-32 26 -35 43 -3 11 -9 14 -17 9z"/>
<path d="M1390 964 c-6 -14 -10 -30 -10 -35 0 -5 -3 -8 -7 -8 -30 5 -34 -3
-13 -21 13 -12 31 -18 41 -15 9 3 20 1 23 -4 4 -5 -3 -12 -14 -16 -11 -4 -18
-10 -15 -15 3 -5 -1 -10 -7 -13 -7 -2 -10 -7 -7 -11 6 -6 69 21 69 30 0 3 -5
2 -10 -1 -7 -4 -8 3 -4 21 5 19 4 25 -5 20 -6 -4 -11 -2 -11 5 0 8 -5 8 -16
-2 -14 -12 -16 -10 -11 21 3 19 8 43 12 53 4 9 4 17 1 17 -4 0 -11 -12 -16
-26z"/>
<path d="M2330 982 c0 -4 7 -17 15 -28 8 -10 15 -34 15 -52 0 -34 -1 -34 49
-5 2 2 -8 12 -23 24 -15 12 -25 28 -22 35 3 8 -4 18 -14 24 -11 6 -20 7 -20 2z"/>
<path d="M1550 970 c-1 -8 -3 -24 -5 -34 -2 -11 -2 -23 1 -27 6 -10 34 0 34
13 0 5 -4 6 -10 3 -5 -3 -10 -1 -10 4 0 6 6 11 13 11 8 0 9 3 1 8 -6 4 -14 14
-17 22 -5 13 -6 13 -7 0z"/>
<path d="M960 955 c-10 -12 -10 -15 3 -15 9 0 25 -13 37 -30 29 -41 44 -38 22
5 -10 20 -25 35 -35 35 -10 0 -15 5 -12 10 9 15 -1 12 -15 -5z"/>
<path d="M1153 959 c-10 -3 -24 -4 -30 -2 -7 3 -13 0 -13 -5 0 -13 7 -18 45
-26 29 -6 30 -6 6 7 -23 14 -23 14 -3 19 12 3 29 -1 39 -9 10 -8 12 -11 4 -8
-9 5 -8 -1 4 -19 10 -14 24 -26 32 -26 8 0 12 -4 9 -8 -3 -5 1 -9 9 -9 8 0 12
4 9 9 -3 4 0 8 6 8 8 0 10 -9 6 -24 -3 -14 -2 -28 4 -31 6 -3 7 1 4 9 -4 11 0
16 12 16 13 0 15 3 7 8 -7 4 -15 19 -17 32 -2 14 -5 27 -5 29 -1 2 -11 -4 -23
-15 -12 -10 -18 -13 -14 -6 4 7 1 15 -8 18 -8 3 -18 14 -21 24 -6 19 -27 22
-62 9z"/>
<path d="M2125 951 c3 -5 -1 -16 -9 -24 -14 -14 -20 -31 -17 -53 2 -22 39 -54
62 -54 19 0 21 -2 9 -10 -10 -6 -12 -12 -5 -19 7 -7 29 -2 69 17 l58 27 -32
24 c-30 22 -32 22 -26 3 11 -32 -25 -47 -64 -27 -31 16 -60 55 -40 55 6 0 8 5
4 11 -3 6 -1 15 6 19 15 9 6 40 -10 40 -6 0 -9 -4 -5 -9z"/>
<path d="M1487 940 c-4 -8 -5 -31 -4 -50 1 -22 -2 -34 -10 -33 -10 2 -11 -16
-4 -56 1 -2 8 2 16 9 14 12 19 7 16 -13 -1 -5 3 -6 8 -2 11 6 3 36 -12 46 -5
4 -4 14 3 25 8 14 9 29 2 54 -6 23 -11 30 -15 20z"/>
<path d="M1823 931 c3 -14 1 -18 -9 -14 -13 5 -18 -7 -15 -34 1 -7 -3 -13 -8
-13 -7 0 -7 -8 -2 -22 5 -14 15 -22 26 -20 10 2 21 -1 24 -7 4 -6 12 -6 20 -2
11 7 9 10 -8 16 -11 3 -21 11 -21 16 0 6 -4 7 -10 4 -6 -3 -10 4 -10 16 0 17
3 20 12 11 13 -13 43 -1 51 22 4 10 -1 13 -16 10 -12 -2 -16 -2 -10 2 10 4 10
9 -1 20 -20 20 -29 18 -23 -5z"/>
<path d="M905 931 c-3 -6 -16 -11 -28 -11 -21 -1 -21 -1 3 -15 23 -12 26 -12
33 7 8 23 3 36 -8 19z"/>
<path d="M2627 909 c-18 -11 -14 -29 6 -29 8 0 8 3 -1 9 -20 12 22 21 77 16
35 -4 40 -3 21 4 -35 12 -82 12 -103 0z"/>
<path d="M1190 881 c0 -11 72 -82 78 -77 2 2 -11 19 -27 37 -17 18 -31 37 -31
41 0 5 -4 8 -10 8 -5 0 -10 -4 -10 -9z"/>
<path d="M1569 869 c-11 -11 -14 -22 -8 -30 7 -11 9 -10 9 4 0 21 18 23 26 3
3 -8 13 -17 21 -20 12 -5 13 -4 5 7 -7 8 -9 17 -5 20 3 4 -1 7 -10 7 -8 0 -17
6 -19 13 -2 9 -7 8 -19 -4z"/>
<path d="M2670 880 c15 -10 -47 -16 -113 -12 -32 2 -140 -32 -130 -41 3 -4 20
-7 37 -6 26 0 28 2 11 9 -17 7 -15 9 12 9 40 1 86 -16 78 -29 -3 -5 0 -10 8
-10 18 0 53 -38 66 -72 14 -38 -2 -29 -74 36 -39 37 -63 52 -76 49 -15 -4 -6
-13 38 -40 60 -35 75 -51 67 -65 -3 -5 -2 -8 3 -7 4 1 11 0 16 -1 11 -4 26 -7
36 -9 5 0 12 -7 14 -13 2 -7 3 0 1 16 -6 47 -59 120 -103 142 l-39 20 102 -4
c90 -3 173 -17 231 -38 16 -6 15 -3 -5 13 -29 23 -46 30 -118 49 -62 16 -83
18 -62 4z"/>
<path d="M1352 823 c-6 -3 -9 -10 -5 -16 11 -18 12 -37 2 -37 -5 0 -9 -5 -9
-10 0 -6 6 -10 13 -8 19 3 58 -12 52 -22 -8 -12 66 -23 76 -11 5 6 6 9 3 6 -4
-2 -19 2 -35 11 -26 13 -27 17 -17 39 6 13 16 21 22 18 6 -4 6 0 -1 9 -7 8 -9
19 -5 23 4 5 -1 5 -11 2 -10 -4 -23 -7 -28 -7 -5 0 -9 -5 -9 -11 0 -6 10 -8
23 -5 12 3 16 3 9 0 -6 -3 -9 -11 -5 -17 4 -7 0 -8 -12 -4 -14 6 -16 3 -12
-12 3 -14 1 -18 -9 -14 -8 3 -12 13 -9 22 6 21 -15 50 -33 44z"/>
<path d="M2710 810 c13 -9 12 -12 -4 -25 -20 -15 -11 -20 17 -9 20 7 10 44
-12 44 -14 0 -14 -2 -1 -10z"/>
<path d="M2255 782 c-14 -7 -30 -10 -35 -7 -15 9 -12 -9 5 -31 9 -12 18 -15
22 -9 14 17 80 17 87 0 4 -12 -4 -15 -47 -16 l-52 -2 46 -6 c26 -4 53 -12 61
-19 8 -6 18 -9 21 -5 4 3 7 -2 7 -12 0 -17 1 -17 13 -2 6 9 23 21 37 27 23 9
22 10 -8 4 -32 -6 -62 8 -62 28 0 5 16 16 35 24 31 13 39 13 65 -1 17 -9 30
-11 30 -6 0 15 -57 33 -82 26 -13 -4 -32 -15 -42 -24 -18 -15 -19 -15 -13 2 7
18 -3 18 -60 1 -14 -4 -23 -2 -23 5 0 6 7 12 15 12 35 3 38 4 42 14 5 15 -32
13 -62 -3z"/>
<path d="M1720 779 c0 -5 -4 -8 -9 -4 -5 3 -13 0 -17 -6 -5 -8 -3 -9 6 -4 9 5
11 4 6 -3 -5 -8 -15 -8 -32 -2 -32 13 -37 12 -29 0 3 -5 2 -10 -4 -10 -5 0
-11 6 -14 13 -4 10 -7 10 -18 0 -16 -16 -59 -17 -59 -2 0 5 6 7 13 3 8 -5 9
-4 2 4 -11 12 -55 5 -55 -9 0 -5 6 -6 14 -3 9 3 17 -3 21 -15 7 -22 29 -28 40
-11 4 6 10 8 15 5 5 -3 11 3 13 12 4 16 5 16 6 1 1 -13 8 -16 36 -11 30 5 35
3 35 -13 1 -12 8 -5 22 21 12 22 23 34 25 27 3 -6 9 -10 14 -6 5 3 7 10 4 15
-8 12 -35 11 -35 -2z"/>
<path d="M2082 718 c-18 -18 -14 -38 8 -38 21 0 23 4 12 33 -6 14 -10 15 -20
5z"/>
<path d="M2516 695 c2 -22 -1 -25 -19 -20 -12 3 -2 -5 23 -18 25 -13 47 -22
49 -20 4 3 -47 83 -53 83 -2 0 -2 -11 0 -25z"/>
<path d="M1870 664 c-47 -13 -118 -27 -157 -30 -74 -7 -92 -21 -51 -39 12 -6
24 -16 26 -23 3 -11 0 -12 -18 -2 -21 11 -21 11 -5 -14 18 -26 64 -61 72 -53
6 6 -19 47 -29 47 -5 0 -8 11 -8 25 0 14 5 25 10 25 6 0 10 -9 10 -20 0 -11 4
-20 9 -20 5 0 13 9 16 20 3 11 13 20 21 20 8 0 14 5 14 10 0 6 5 10 10 10 6 0
10 -9 10 -20 0 -11 5 -20 10 -20 6 0 10 5 10 10 0 6 9 10 20 10 11 0 20 4 20
8 0 14 71 41 115 45 30 3 46 -2 63 -18 21 -20 22 -23 6 -36 -15 -13 -16 -11
-10 11 6 19 5 21 -3 10 -9 -12 -11 -12 -11 -1 0 11 -5 10 -20 -4 -11 -10 -23
-15 -27 -11 -4 4 -1 11 7 16 21 13 10 19 -22 13 -32 -6 -38 -33 -8 -33 11 0
20 -4 20 -8 0 -5 11 -15 25 -22 13 -7 35 -28 47 -47 13 -18 28 -31 35 -29 14
6 36 -18 26 -27 -3 -4 -1 -7 7 -7 10 0 10 -4 -1 -17 -12 -16 -12 -17 2 -6 9 7
20 9 24 5 5 -4 5 2 1 13 -5 11 -9 26 -10 34 -3 19 -46 35 -47 18 0 -7 -8 8
-18 33 -10 25 -16 48 -14 53 8 15 23 6 29 -18 3 -14 10 -22 15 -19 6 3 6 12 0
22 -6 11 -4 20 7 29 15 11 15 12 -3 7 -13 -2 -26 4 -36 19 -16 22 -16 22 27
21 25 -1 50 -9 59 -18 18 -17 40 -22 30 -7 -3 6 10 8 32 5 29 -4 34 -3 23 5
-12 8 -6 11 25 11 22 0 50 3 63 6 21 6 21 7 5 20 -21 16 -37 18 -28 4 4 -6 -6
-10 -22 -10 -15 0 -46 -7 -68 -14 -35 -12 -44 -12 -69 1 -18 10 -45 13 -71 11
-26 -3 -49 0 -60 8 -24 18 -33 17 -135 -12z"/>
<path d="M2605 646 c3 -39 1 -47 -12 -42 -11 4 -13 2 -9 -9 3 -8 1 -15 -4 -15
-6 0 -10 8 -10 17 0 13 -3 14 -12 5 -16 -16 -48 -15 -48 1 0 8 -3 8 -9 -2 -10
-16 3 -50 23 -63 6 -4 7 -10 3 -14 -9 -9 -47 25 -47 42 0 7 -5 16 -12 20 -8 5
-9 2 -5 -10 5 -13 3 -17 -7 -13 -8 3 -17 -1 -20 -10 -4 -8 -13 -13 -21 -9 -8
3 -15 1 -15 -4 0 -17 -23 -11 -47 12 -20 18 -23 19 -23 5 0 -9 8 -17 18 -17
16 -1 16 -2 0 -13 -11 -9 -14 -18 -7 -28 6 -10 9 -10 9 -1 0 6 7 12 15 12 21
0 19 -12 -7 -34 -21 -18 -22 -18 -39 2 -15 19 -18 20 -29 7 -7 -9 -10 -19 -6
-22 4 -4 11 -1 16 7 8 13 10 13 10 -1 0 -18 -24 -32 -34 -21 -4 3 -15 7 -26 9
-11 1 -23 4 -27 5 -4 1 -18 -2 -31 -6 -17 -6 -21 -13 -17 -27 4 -11 2 -19 -5
-19 -6 0 -8 5 -5 10 3 6 1 10 -4 10 -6 0 -11 -10 -11 -22 0 -17 -3 -19 -12
-10 -8 8 -17 8 -30 1 -14 -8 -20 -6 -25 8 -9 25 -19 30 -53 25 -40 -6 -38 -17
2 -17 19 0 33 -6 36 -15 4 -12 2 -13 -9 -4 -9 7 -25 8 -48 2 -49 -14 -25 -24
64 -27 63 -2 80 2 105 19 18 13 58 25 97 31 37 5 75 15 84 22 9 7 35 27 59 45
36 27 49 31 77 26 29 -5 35 -3 40 14 7 28 32 36 53 17 17 -15 18 -14 24 12 10
53 10 98 -1 118 -9 15 -10 10 -8 -29z"/>
<path d="M2755 670 c7 -23 -3 -26 -19 -5 -7 9 -19 12 -32 9 -21 -6 -21 -6 7
-57 16 -30 24 -54 18 -57 -5 -4 -2 -13 8 -23 17 -15 18 -13 15 39 -4 62 10 75
61 56 43 -16 44 -8 5 27 -39 36 -73 42 -63 11z"/>
<path d="M2401 669 c8 -5 22 -9 32 -9 9 0 16 -3 15 -7 -2 -5 2 -9 7 -10 6 -2
10 5 10 15 0 13 -9 17 -39 19 -26 1 -34 -2 -25 -8z"/>
<path d="M2645 650 c4 -6 3 -16 -2 -23 -5 -7 -11 -30 -12 -51 -1 -22 -4 -43
-8 -49 -3 -5 4 -4 15 2 16 8 21 7 26 -5 11 -30 27 -3 20 34 -8 42 -31 102 -40
102 -3 0 -2 -5 1 -10z"/>
<path d="M2413 613 c-17 -3 -23 -11 -23 -29 0 -15 4 -23 10 -19 6 4 8 11 4 16
-3 5 10 16 28 24 32 14 26 17 -19 8z"/>
<path d="M2190 589 c25 -5 54 -6 65 -3 14 4 17 3 10 -4 -5 -6 -28 -12 -50 -15
-34 -3 -32 -4 15 -5 43 -2 58 2 66 16 10 16 4 17 -70 18 -71 1 -76 0 -36 -7z"/>
<path d="M1913 572 c31 -19 37 -38 7 -22 -11 6 -20 7 -20 3 0 -4 11 -13 25
-20 14 -6 22 -7 19 -2 -3 5 2 12 10 15 12 5 6 11 -21 25 -46 24 -57 24 -20 1z"/>
<path d="M1757 560 c-6 -22 14 -37 33 -25 13 8 13 32 0 40 -6 4 -7 -1 -4 -12
5 -17 5 -17 -9 0 -14 17 -15 16 -20 -3z"/>
<path d="M1816 558 c4 -6 7 -25 6 -42 -1 -22 2 -26 8 -16 15 23 12 57 -6 64
-9 4 -13 2 -8 -6z"/>
<path d="M2698 526 c-4 -38 -3 -39 24 -28 17 7 16 9 -1 35 l-19 29 -4 -36z"/>
<path d="M2210 545 c-1 -5 -2 -13 -2 -16 1 -4 -10 -9 -23 -11 -14 -3 -23 -1
-22 6 1 6 -11 12 -28 13 -22 1 -25 0 -10 -5 13 -4 20 -15 19 -29 -1 -12 5 -24
12 -27 9 -3 11 0 7 11 -5 13 -2 15 15 11 12 -4 25 -2 28 3 9 15 37 10 31 -5
-3 -8 2 -16 12 -19 11 -2 18 1 18 9 0 8 -4 14 -8 14 -5 0 -6 7 -3 15 4 10 0
15 -14 15 -11 0 -23 6 -25 13 -3 6 -6 8 -7 2z"/>
<path d="M1774 455 c-2 -21 1 -24 12 -14 11 9 14 7 14 -10 0 -13 6 -21 16 -21
14 0 14 4 -3 32 -23 40 -38 45 -39 13z"/>
<path d="M1617 308 c-6 -4 15 -7 48 -7 64 1 65 5 2 11 -20 2 -43 0 -50 -4z"/>
</g>
</svg>
